<?xml version="1.0" encoding="utf-8"?>
<!-- Svg Vector Icons : http://www.onlinewebfonts.com/icon -->
<!DOCTYPE svg PUBLIC "-//W3C//DTD SVG 1.1//EN" "http://www.w3.org/Graphics/SVG/1.1/DTD/svg11.dtd">
<svg version="1.1" xmlns="http://www.w3.org/2000/svg" xmlns:xlink="http://www.w3.org/1999/xlink" x="0px" y="0px" viewBox="0 0 1000 1000" enable-background="new 0 0 1000 1000" xml:space="preserve">
<metadata> Svg Vector Icons : http://www.onlinewebfonts.com/icon </metadata>
<g><g transform="translate(0.000000,512.000000) scale(0.100000,-0.100000)"><path d="M4525.5,4998.7c-1044.2-101.5-2057.8-551.8-2828-1255C820,2939,296.9,1935,124.4,718.3c-32.6-226.1-32.6-981,0-1207.1c161-1134.3,630.4-2088.5,1404.5-2862.6c774.1-774.1,1728.2-1243.5,2862.5-1404.4c226.1-32.6,981-32.6,1207.1,0c1103.6,157.1,2050.1,611.2,2795.5,1341.2c220.4,214.6,270.2,314.2,270.2,530.7c0,189.7-44.1,295.1-176.3,427.3c-115,115-264.4,176.3-427.3,176.3c-180.1,0-298.9-55.6-482.9-226.1c-344.9-320-620.8-511.6-996.3-693.6c-1297.1-626.5-2839.5-431.1-3952.8,502C1344.9-1623.1,954.1,195.2,1682.2,1705c743.4,1540.5,2437.2,2368.2,4096.5,2000.3c285.5-63.2,492.4-137.9,787.5-277.8c289.3-139.9,747.2-438.8,747.2-490.5c0-7.7-233.8-249.1-517.3-532.7c-557.6-557.6-590.1-601.6-569.1-758.8c15.3-109.2,92-216.5,189.7-264.4c84.3-40.2,93.9-40.2,1640.1-40.2c1358.5,0,1565.4,3.8,1626.7,28.7c95.8,40.2,138,80.5,180.1,172.4c34.5,72.8,36.4,164.8,36.4,1636.3c0,1552,0,1561.6-40.2,1645.9c-47.9,97.7-155.2,174.4-262.5,189.7c-159,21.1-184,1.9-808.6-618.9l-584.4-580.6l-172.4,136C7031.7,4742,5774.8,5117.5,4525.5,4998.7z" fill="#dedede"/></g></g>
</svg>